# xmcd
#
# Track frame offsets:
#	151
#	27500
#	53000
#	72450
#	88901
#	112848
#	128915
#	145749
#	168606
#	182379
#	199493
#	222530
#	241833
#	257079
#	272313
#	291866
#
# Disc length: 4120 seconds
#
# Revision: 1
# Processed by: cddbd v1.5PL3 Copyright (c) Steve Scherf et al.
# Submitted via: CDex 1.50Beta5
#
DISCID=f2101610
DTITLE=Dr. Dre - More Mega Big Gangsta Raps
DYEAR=2001
DGENRE=R&B
TTITLE0=Freak-A-Holic
TTITLE1=Radio Activity Rapp
TTITLE2=Must Be The Music
TTITLE3=Hyper Groove
TTITLE4=Feel My Bass
TTITLE5=Panic Zone
TTITLE6=Drink It Up
TTITLE7=Innovator
TTITLE8=Let's Jam
TTITLE9=Dial A Freak
TTITLE10=Revelation
TTITLE11=Egypt, Egypt
TTITLE12=Gang Bang
TTITLE13=The X Men
TTITLE14=I Got Your Wild Thang
TTITLE15=Horney Computer
EXTD=
EXTT0=
EXTT1=
EXTT2=
EXTT3=
EXTT4=
EXTT5=
EXTT6=
EXTT7=
EXTT8=
EXTT9=
EXTT10=
EXTT11=
EXTT12=
EXTT13=
EXTT14=
EXTT15=
PLAYORDER=
